<?xml version="1.0" encoding="utf-8"?>
<!-- Generator: Adobe Illustrator 21.1.0, SVG Export Plug-In . SVG Version: 6.00 Build 0)  -->
<svg version="1.1" id="Calque_1" xmlns="http://www.w3.org/2000/svg" xmlns:xlink="http://www.w3.org/1999/xlink" x="0px" y="0px"
	 viewBox="0 0 432 432" style="enable-background:new 0 0 432 432;" xml:space="preserve">
<style type="text/css">
	.st0{fill:#591C00;}
	.st1{fill:#999999;}
	.st2{fill:#FCC062;}
	.st3{fill:#DA7D81;}
	.st4{fill:#C1272D;}
	.st5{fill:#1A1A1A;}
	.st6{fill:#736357;}
	.st7{fill:#8D819B;}
	.st8{fill:#BF7F99;}
	.st9{fill:#881B30;}
	.st10{fill:#A58B66;}
	.st11{fill:#781F00;}
	.st12{fill:#852A00;}
	.st13{fill:#AD8C52;}
	.st14{fill:#859660;}
	.st15{fill:#D3AB99;}
	.st16{fill:#A12E37;}
	.st17{fill:#8F8279;}
	.st18{fill:#758295;}
	.st19{fill:#60373C;}
	.st20{fill:#EFD333;}
	.st21{fill:#CE74B4;}
	.st22{fill:#313E2B;}
	.st23{fill:#5A1700;}
	.st24{fill:#BC79A7;}
	.st25{fill:#877F9A;}
	.st26{fill:#CC8FC1;}
	.st27{fill:#333333;}
	.st28{fill:#C3CD84;}
	.st29{fill:#7E97A5;}
	.st30{fill:#627C55;}
	.st31{fill:#B3B3B3;}
	.st32{fill:#AD3642;}
	.st33{fill:#2A7893;}
	.st34{fill:#669AB4;}
	.st35{fill:#AF689C;}
	.st36{fill:#6EA892;}
	.st37{fill:#663D2C;}
	.st38{fill:#BBBA2A;}
	.st39{fill:#A09830;}
	.st40{fill:#799D7D;}
	.st41{fill:#C69C6D;}
	.st42{fill:#BC79AD;}
	.st43{fill:#BC8A70;}
	.st44{fill:#ADADAD;}
	.st45{fill:#606981;}
	.st46{fill:#4D4D4D;}
	.st47{fill:#70BEB2;}
	.st48{fill:#11937F;}
	.st49{fill:#C78287;}
	.st50{fill:#944F54;}
	.st51{fill:#534741;}
	.st52{fill:#D6A354;}
	.st53{fill:#E7AC22;}
	.st54{fill:#89BBA2;}
	.st55{fill:#BF4D28;}
	.st56{fill:#88382D;}
	.st57{fill:#D86C62;}
	.st58{fill:#B57C53;}
	.st59{fill:#E6C34F;}
	.st60{fill:#A0392B;}
	.st61{fill:#FFFFFF;}
	.st62{fill:#AD7460;}
	.st63{fill:#939E9E;}
	.st64{fill:#2E4DA7;}
	.st65{fill:#39B54A;}
	.st66{fill:#D1417E;}
	.st67{fill:#FD8402;}
	.st68{fill:#727D6D;}
	.st69{fill:#BAAC91;}
	.st70{fill:#3F4650;}
	.st71{fill:#653F34;}
	.st72{fill:#3F3C35;}
	.st73{fill:#A84A5C;}
	.st74{fill:#3B5347;}
	.st75{fill:#854B16;}
	.st76{fill:#5B6F69;}
	.st77{fill:#767094;}
	.st78{fill:#08B19A;}
	.st79{fill:#AAB1A7;}
	.st80{fill:#4C5839;}
	.st81{fill:#6E2521;}
	.st82{fill:#ED6184;}
	.st83{fill:#A4B449;}
	.st84{fill:#EB7466;}
</style>
<g>
	<g>
		<path class="st20" d="M208.1,312c-0.1,0.3-0.3,0.8-0.5,1.2c-0.3,0.5-0.7,0.9-1.1,1.3c-2.6,2.6-4.3,5.6-5.3,9.1
			c-0.2,0.6-0.4,1.3-0.6,1.9c-0.3,0.8-0.8,1.4-1.7,1.5c-0.9,0.1-1.5-0.4-2-1.1c-0.2-0.3-0.3-0.5-0.5-0.8c-0.2-0.5-0.5-0.9-0.7-1.4
			c-1.2-2.6-2.9-4.9-5.2-6.6c-0.3-0.2-0.6-0.5-0.9-0.8c-0.7-0.7-0.7-1.6-0.2-2.4c0.2-0.3,0.4-0.5,0.6-0.7c2.7-2.2,4-5.1,4.7-8.3
			c0.2-1,0.4-2.1,0.7-3.1c0.1-0.4,0.1-0.8,0.3-1.1c0.6-1.3,2.1-1.6,3-0.4c0.3,0.4,0.5,0.8,0.7,1.3c0.3,0.9,0.6,1.7,0.9,2.6
			c0.8,2.1,2,3.9,4.1,5c0.8,0.4,1.5,0.7,2.3,1.1C207.6,310.4,208,311,208.1,312z"/>
		<path class="st20" d="M322,296c-0.1,0.8-0.5,1.5-1.2,1.7c-1.5,0.5-2.4,1.5-3.3,2.7c-1.3,1.8-2.1,3.8-2.7,6c-0.1,0.5-0.3,1-0.4,1.5
			c-0.2,0.6-0.6,1-1.2,1.1c-0.6,0.1-1.1-0.2-1.4-0.8c-0.2-0.3-0.3-0.6-0.5-0.8c-1.7-3.5-3.9-6.7-6.9-9.4c-0.4-0.4-0.8-0.7-1.1-1.1
			c-0.6-0.7-0.6-1.6,0.1-2.3c0.3-0.3,0.7-0.6,1.1-0.8c3.5-2,5.2-5.2,5.8-9c0.1-0.9,0.3-1.7,0.4-2.6c0.2-1,0.6-1.5,1.4-1.6
			c0.8-0.1,1.4,0.3,1.8,1.2c0.3,0.8,0.4,1.6,0.7,2.5c0.4,1.6,0.8,3.2,1.2,4.7c0.8,2.5,2.5,4.4,4.9,5.4
			C321.5,294.7,321.9,295.2,322,296z"/>
		<path class="st20" d="M227.6,173.5c-0.6,0-1.1-0.4-1.4-1c-0.2-0.4-0.3-0.9-0.5-1.3c-0.6-1.3-1.2-2.7-1.9-4
			c-0.9-1.6-2.2-2.7-3.8-3.7c-0.8-0.5-1.7-1-2.4-1.5c-1.5-1.1-1.5-2.5,0.1-3.5c0.5-0.3,1-0.6,1.4-0.9c2.1-1.4,3.6-3.2,4-5.8
			c0.3-1.5,0.4-2.9,0.6-4.4c0.1-0.5,0.1-0.9,0.2-1.4c0.3-1.1,1.6-1.5,2.4-0.6c0.3,0.3,0.5,0.8,0.6,1.2c0.3,1.3,0.5,2.7,0.8,4.1
			c0.7,3.7,3,5.8,6.6,6.6c0.3,0.1,0.6,0.1,0.9,0.2c0.7,0.2,1.1,0.6,1.3,1.3c0.2,0.7-0.1,1.2-0.6,1.7c-0.2,0.1-0.3,0.3-0.5,0.4
			c-2.4,1.3-3.8,3.4-4.7,5.9c-0.5,1.4-0.7,2.8-1.1,4.2c-0.1,0.4-0.2,0.9-0.4,1.3C229,173.1,228.4,173.5,227.6,173.5z"/>
	</g>
	<g>
		<g>
			<path class="st21" d="M363.1,344.4c-0.5-0.3-1-0.2-1.4,0.3c-0.4,0.5-0.8,1.1-1.2,1.6c-1.1,1.6-2.2,3.2-3.4,4.7
				c-0.6,0.7-1.3,1.4-2.1,1.9c-0.7,0.6-1.1,0.5-1.7-0.2c-0.6-0.7-1.3-1.5-1.8-2.4c-1.1-2-1.9-4-2.4-6.2c-1.6-7-2.3-14.1-2.6-21.3
				c0-0.7,0.1-1.2,0.5-1.8c3.3-4.7,6-9.8,8.1-15.2c2.4-6.3,4-12.8,3.6-19.6c-0.1-2.3-0.6-4.5-1.5-6.6c-0.7-1.5-1.5-2.9-2.8-4
				c-2.5-2.2-5.6-2.3-8.1-0.2c-0.7,0.6-1.4,1.3-2,2c-1.9,2.3-3.3,4.9-4.3,7.8c-2.2,6.2-3.2,12.6-3.9,19.1
				c-0.5,5.2-0.5,10.3-0.4,15.5c0.1,5,0.7,9.9,1.6,14.8c0.1,0.5,0.1,1,0,1.5c-0.9,3.8-1.8,7.5-2.7,11.3c-0.6,2.7-1.2,5.3-1.9,8
				c-0.2,0.6-0.5,1.2-0.8,2.1c-0.3-0.5-0.4-0.8-0.5-1.2c-0.3-1.1-0.7-2.2-0.9-3.3c-1.1-4.9-1.5-9.9-2.2-14.9
				c-0.4-2.6-0.8-5.3-1.2-7.9c-0.2-1.3-0.6-2.6-1.4-3.6c-0.8-1.1-1.9-1.9-3.4-1.8c-1.5,0.2-2.3,1.2-2.8,2.5c-0.2,0.6-0.4,1.1-0.7,2
				c-0.3-0.4-0.4-0.7-0.6-0.9c-1.1-1.2-2.3-2.1-3.7-2.9c-3.3-1.7-6.9-1-9.2,1.9c-0.8,1-1.4,2.1-1.9,3.2c-0.6,1.5-1.2,3.2-1.3,4.8
				c-0.2,2.5-1.3,4.4-2.8,6.3c-1.7,2-3.3,4.1-5,6.1c-0.5,0.6-1.2,1.2-1.8,1.6c-1.2,0.8-2.3,0.6-3.1-0.7c-0.4-0.6-0.6-1.3-0.9-1.9
				c-0.9-2.5-1.4-5.1-1.6-7.8c-0.1-0.7-0.1-1.3-0.1-1.9c1.1-0.4,2.2-0.7,3.1-1.1c3.6-1.8,5.8-4.6,5.9-8.8c0-2.9-1.3-5.2-3.9-6.6
				c-2.5-1.3-4.9-0.6-7.1,1c-1.3,1-2.3,2.3-3.2,3.7c-2,3.4-2.8,7.2-2.8,11.1c0,2.4,0.3,4.8,0.8,7.2c0.1,0.5,0.1,1,0,1.5
				c-0.7,3.8-1.5,7.5-2.3,11.3c-0.4,1.8-0.9,3.5-1.5,5.2c-0.1,0.4-0.3,0.8-0.8,1.2c-0.3-1-0.6-1.8-0.8-2.6c-0.9-3.5-1.1-7-1.1-10.6
				c0-3.3,0.1-6.7,0.2-10c0-3.3,0.1-6.6,0.1-9.9c0-2-0.4-4-1.5-5.8c-0.9-1.5-2.3-2.2-4-2.1c-1.1,0-2,0.3-2.9,0.9
				c-1.6,1-3.2,2-4.8,3.1c-1.8,1.2-3.5,2.5-5.3,3.7c-0.4,0.3-1,0.5-1.4,0.8c-0.7-1.2-1.2-2.3-1.9-3.4c-0.8-1.2-1.8-2.3-3.1-3
				c-2.5-1.3-5-0.6-6.5,1.8c-0.2,0.4-0.4,0.7-0.6,1.1c-1.7,4.3,1.2,9.6,5.9,10.6c1.3,0.3,2.5,0.2,3.9-0.1c0,0.2,0.1,0.4,0.1,0.5
				c0,3-0.5,6-1.5,8.9c-0.6,1.7-1.3,3.3-2.6,4.6c-0.8,0.9-1.8,1.7-2.7,2.6c-0.2,0.2-0.4,0.3-0.5,0.5c-0.4,0.5-0.3,1.1,0,1.5
				c0.3,0.5,0.9,0.6,1.5,0.3c0.2-0.1,0.4-0.2,0.5-0.3c2.3-1.4,4-3.5,5.2-5.9c2.2-4.2,3.3-8.7,3.2-13.4c0-0.5,0-0.8,0.4-1.2
				c1.3-1.1,2.4-2.4,3.6-3.6c1.1-1.1,2.1-2.3,3.2-3.4c0.8-0.8,1.7-1.4,2.6-2.1c0.4-0.3,1-0.6,1.7-0.5c-0.1,0.9-0.3,1.8-0.4,2.7
				c-0.4,3-0.7,5.9-1,8.9c-0.5,5.1-0.6,10.2,0.1,15.3c0.5,3.4,1.4,6.7,3.1,9.7c0.7,1.3,1.6,2.6,2.9,3.5c2.2,1.7,4.5,1.4,6.1-0.9
				c0.7-1.1,1.3-2.3,1.7-3.5c0.9-2.6,1.3-5.4,1.8-8.2c0.3-1.6,0.6-3.2,0.8-4.8c0.5,0.4,0.7,0.9,1,1.3c1.2,2,2.7,3.7,4.9,4.5
				c2.4,0.9,4.6,0.6,6.4-1.2c0.9-0.9,1.6-1.9,2.3-2.9c1.7-2.4,3.4-4.8,5.2-7.2c0.1-0.2,0.3-0.3,0.5-0.5c0.2,2,0.3,3.9,0.6,5.8
				c0.5,3.4,1.5,6.6,3.4,9.5c0.8,1.2,1.7,2.2,3,3c0.8,0.5,1.7,0.8,2.7,0.8c1.3-0.1,2.4-0.7,3.2-1.7c0.7-1,1.4-2,1.9-3.1
				c1.2-2.5,2.2-5.1,3.3-7.7c0.1-0.3,0.1-0.7,0.6-0.8c0.2,0.8,0.4,1.5,0.6,2.3c1.1,3.7,2.6,7.1,5.1,10.1c0.6,0.8,1.4,1.5,2.2,2
				c1.5,1,3,0.8,4.2-0.5c0.6-0.7,1.1-1.5,1.6-2.3c1-1.8,1.5-3.7,1.9-5.6c0.8-4.2,1.6-8.4,2.4-12.5c0.1-0.6,0.2-1.2,0.4-1.9
				c0.6,1.5,1,2.9,1.5,4.4c0.8,2.7,1.8,5.3,3.1,7.8c1.2,2.1,2.6,4,4.6,5.4c1.1,0.7,2.2,1.3,3.5,1.5c1.8,0.2,3.4-0.3,4.8-1.3
				c1.6-1.1,2.7-2.6,3.6-4.2c1.3-2.4,2.6-4.8,3.9-7.2c0.1-0.2,0.2-0.4,0.3-0.7C363.7,345.3,363.5,344.7,363.1,344.4z M246.7,328.6
				c-0.1-0.3,0-0.7,0.1-0.9c0.2-0.2,0.6-0.2,0.9,0c0.5,0.3,1.1,0.6,1.4,1c0.5,0.7,0.9,1.5,1.5,2.3
				C248.5,331.3,247.1,330.4,246.7,328.6z M287,329.5c0.1-1,0.3-2,0.5-3c0.1-0.4,0.2-0.7,0.4-1.1c0.7-1.5,2.3-1.8,3.5-0.8
				c1.3,1.1,1.6,2.6,1.4,4.2c-0.4,2.7-3.2,5.6-6.1,6.1C286.9,333.1,286.9,331.3,287,329.5z M318.3,344.8c-1.3,2.7-2.5,5.5-3.8,8.2
				c-0.5,1-1.2,1.9-1.9,2.7c-0.7,0.8-1.2,0.7-1.7-0.3c-0.6-1.3-0.8-2.6-0.9-4c-0.2-3.5-0.4-7.1-0.5-10.6c-0.1-2.3,0-4.7,0.5-7
				c0.2-1,0.6-1.9,1-2.8c0.7-1.4,2.2-1.9,3.7-1c1.3,0.8,2.4,1.8,3.2,3c0.2,0.3,0.4,0.7,0.4,1.1c0.1,3.1,0.2,6.3,0.3,9.4
				c0,0.1,0,0.2,0,0.5C318.5,344.2,318.4,344.5,318.3,344.8z M346.4,313.9c0.3-5.2,0.5-10.5,0.9-15.7c0.3-4.2,0.9-8.5,1.5-12.7
				c0.2-1.5,0.6-2.9,1-4.3c0.2-0.7,0.6-1.5,1-2.1c0.7-1.1,1.8-1.2,2.6-0.2c0.5,0.6,0.9,1.3,1.3,2.1c1.1,2.4,1.3,4.9,1.3,7.5
				c-0.1,6.1-1.6,12-3.8,17.7c-1.4,3.6-3.1,7-4.9,10.3c-0.1,0.2-0.3,0.5-0.5,0.7c-0.1,0.1-0.2,0.1-0.5,0.4
				C346.3,316.2,346.4,315.1,346.4,313.9z"/>
			<path class="st21" d="M271.8,289.7c0.9,3,1.7,5.8,3.4,8.2c1.8,2.5,3,2.6,5.3,0.6c1-0.9,1.9-1.9,2.6-3c1.5-2.3,2.8-4.7,4.2-7
				c0.2-0.3,0.3-0.6,0.6-0.8c0.4-0.3,0.9-0.3,1.3,0c0.4,0.3,0.6,0.7,0.4,1.2c-0.2,0.4-0.4,0.7-0.6,1c-0.8,1.4-1.6,2.8-2.4,4.3
				c-1.4,2.5-2.8,4.9-4.7,7.1c-0.8,0.9-1.7,1.8-2.8,2.3c-2.3,1.1-4.6,1.2-6.8,0c-1.5-0.8-2.8-2-3.8-3.4c-0.2-0.3-0.5-0.6-0.8-1.1
				c-0.1,0.5-0.1,0.8-0.2,1.1c-0.3,2.6-0.7,5.2-1.5,7.7c-0.4,1.5-1,2.9-1.9,4.1c-1.6,2.3-3.8,2.7-6.1,1.2c-2.4-1.6-4-4-5-6.7
				c-1-2.9-1.5-5.9-1.7-9c-0.4-4.3-0.1-8.6,0.2-12.9c0.1-1.8,0.3-3.5,0.5-5.3c0-0.5,0-1.1,0-1.6c-0.5-0.3-1-0.1-1.5,0.1
				c-0.7,0.3-1.5,0.8-2.1,1.2c-1.3,1-2.6,2.1-4,3c-0.4,0.3-0.3,0.6-0.3,1c0,2.4,0.1,4.8,0,7.2c-0.2,3.6-0.9,7-2.3,10.3
				c-0.5,1.2-1.1,2.3-1.9,3.3c-1.7,2.2-4.1,2.9-6.7,2c-2.1-0.7-3.7-2.1-4.8-4c-0.6-1.2-1-2.5-1.5-3.7c-0.1-0.3-0.2-0.5-0.3-1
				c-0.2,0.6-0.4,0.9-0.5,1.3c-0.7,1.7-1.4,3.4-2.2,5.1c-0.4,0.9-1.1,1.7-1.8,2.3c-2,1.9-4.6,1.9-6.8,0.1c-1.6-1.3-2.7-3.1-3.3-5.1
				c-1.4-4.6-1.2-9.2,0.2-13.8c0.6-1.9,1.4-3.6,2.7-5.2c0.9-1.1,1.9-2.1,3.2-2.7c2.4-1.3,4.8-1.1,7,0.5c0.3,0.2,0.6,0.4,0.9,0.7
				c0.1-0.3,0.2-0.5,0.4-0.8c0.3-0.5,0.5-1,0.8-1.5c1.3-1.7,3.6-1.6,4.7,0.3c0.7,1.2,0.9,2.5,1,3.9c0.1,2.2,0.1,4.4,0.2,6.6
				c0.2,3,0.5,6,1.4,8.9c0.2,0.6,0.4,1.2,0.7,1.7c0.3,0.5,0.6,0.9,1.1,1.3c0.6,0.5,1.2,0.5,1.8,0c0.6-0.6,1.2-1.2,1.5-1.9
				c0.5-1.1,0.9-2.2,1.2-3.4c0.7-3.3,1.2-6.6,1-10c0-0.7-0.1-1.3-0.2-2c-0.2,0-0.3,0-0.5,0c-4.9,0.4-8.9-4.1-8-8.9
				c0.2-0.9,0.6-1.8,1.2-2.5c1.4-1.6,3.5-2,5.2-0.8c0.7,0.5,1.4,1.2,1.9,2c0.9,1.3,1.4,2.8,1.8,4.3c0.1,0.3,0.2,0.5,0.3,0.9
				c0.8-0.5,1.6-0.9,2.4-1.3c2-1.1,4-2.1,6.2-2.5c3.2-0.6,5.8,0.7,7.1,3.7c0.7,1.4,0.9,3,1,4.5c0.2,2.3,0.3,4.7,0.5,7
				c0.4,5.2,0.7,10.3,1.9,15.4c0.2,0.9,0.5,1.8,0.9,2.7c0.1-0.3,0.3-0.7,0.4-1c0.9-2.4,1.3-4.9,1.9-7.3c0.4-1.9,0.4-3.7-0.4-5.5
				c-1.2-2.6-1.7-5.4-1.6-8.3c0-2.8,0.5-5.4,1.7-8c0.5-1,1-2,1.8-2.8c2.8-3.2,7.5-3.2,10.3,0c2.3,2.5,2.7,5.5,1.6,8.6
				c-0.4,1.2-1.1,2.3-1.9,3.3c-1.1,1.5-2.6,2.2-4.4,2.5C272.6,289.6,272.2,289.6,271.8,289.7z M220.6,301.7c0.8-0.4,1.3-0.9,1.7-1.5
				c1.1-1.5,2-3.2,2.7-5c0.2-0.5,0.3-1,0.3-1.5c0.1-2.8,0.1-5.5,0.1-8.3c0-0.2,0-0.6-0.1-0.7c-0.5-0.5-1.1-1-1.7-1.4
				c-0.8-0.4-1.5-0.2-2,0.7c-0.4,0.8-0.8,1.6-1,2.4c-0.7,2.3-0.9,4.7-1,7c-0.1,2.1-0.1,4.2,0.4,6.2
				C220.1,300.3,220.4,300.9,220.6,301.7z M270.8,282.7c0,0.6-0.1,1.1,0,1.7c0.1,0.9,0.4,1.8,0.6,2.7c0.1,0.4,0.4,0.7,0.9,0.6
				c0.9-0.2,1.7-0.4,2.3-1.2c1.2-1.4,1.9-3,2-4.8c0.1-2-0.6-3.3-2-4c-1.4-0.7-2.6-0.3-3.2,1.1C270.8,280,270.8,281.3,270.8,282.7z
				 M241.6,279.2c0-0.1,0.1-0.2,0-0.3c-0.3-1.6-0.9-3.2-1.9-4.5c-0.3-0.4-0.7-0.8-1.2-1c-0.9-0.5-1.4-0.2-1.6,0.8
				C236.6,276.7,239,279.3,241.6,279.2z"/>
		</g>
		<g>
			<path class="st21" d="M216.1,83.5c-0.4-1.7-0.8-3.2-1-4.7c-0.5-2.9-0.8-5.9-0.3-8.9c0.1-0.9,0.4-1.8,0.6-2.7
				c0.1-0.4,0.3-0.7,0.5-1.1c1-1.6,2.5-1.9,4-0.8c0.4,0.3,0.7,0.6,1,0.9c4.2,4.9,8.5,9.6,11.6,15.3c0.3,0.6,0.7,0.9,1.4,1
				c3.1,0.8,6.2,0.9,9.3,0.1c4.1-1.1,8.2-2.2,12.2-3.3c5.1-1.4,10.3-1.9,15.6-1.3c1.6,0.2,3.2,0.3,4.9,0.5c0.7,0.1,1.4,0.3,2,0.6
				c1.1,0.5,1.5,1.5,0.9,2.6c-0.3,0.6-0.8,1.3-1.3,1.8c-1.1,1-2.2,1.9-3.4,2.8c-0.5,0.4-0.9,0.8-1.3,1.2c0.3,0.8,1,1,1.5,1.2
				c1.7,0.5,3.3,1,5,1.4c3.3,0.7,6.6,1.3,9.9,1.9c1.2,0.2,2.4,0.6,3.6,1c5.1,1.7,8.7,5.1,10.9,10c0.7,1.5,1.1,3,1.7,4.5
				c0.4,1.2,0.8,2.3,1.3,3.5c1.4,3.5,3.5,6.6,6.2,9.2c1.6,1.5,3.3,3,4.9,4.5c2.3,2.1,4.4,4.4,6.3,6.9c0.9,1.1,1.9,2.2,2.8,3.3
				c0.8,0.9,1,1.7,0.5,2.4c-0.4,0.7-1.2,0.9-2.3,0.5c-1.4-0.5-2.8-1.1-4.1-1.7c-1.1-0.5-2.2-1.1-3.5-1.7c0,0.4,0,0.5,0,0.7
				c0.2,2.5,0.5,5.1,0.7,7.6c0.3,4.2,1.2,8.2,3,12c1.6,3.5,4.1,6.4,7.3,8.6c0.4,0.3,0.8,0.5,1.1,0.9c0.7,0.7,0.6,1.7-0.2,2.3
				c-0.3,0.3-0.7,0.4-1.1,0.6c-3,1.2-6.2,1.5-9.4,1.2c-4-0.4-7.7-1.7-11.5-3.1c-0.2-0.1-0.5-0.2-0.7-0.3c-0.1,0-0.1,0-0.3,0
				c0.2,0.9,0.3,1.8,0.5,2.7c0.7,3.7,2.2,7.2,4.1,10.4c0.9,1.6,2.2,2.8,3.6,4c0.7,0.6,1.4,0.8,2.3,0.4c1-0.5,1.9-0.9,2.9-1.4
				c4.4-2.2,8.9-4.2,13.7-5.5c2.9-0.8,5.8-1.2,8.8-1.2c1,0,2.1,0.1,3.1,0.3c2.7,0.6,4.7,2.2,6,4.7c1,1.9,1.6,3.9,1.9,6.1
				c0.3,1.8,0.4,3.7,0.6,5.5c0.2,2.5,0.5,4.9,1.1,7.4c0.4,1.5,1,3,1.8,4.3c0.8,1.2,1.6,2.4,2.4,3.6c1.5,2.2,2.8,4.4,3.9,6.8
				c1,2.3,1.6,4.7,1.5,7.3c-0.1,1.2-0.4,2.2-0.8,3.3c-1.1,2.5-2.7,4.6-4.7,6.4c-4.1,3.8-8.4,7.3-12.9,10.6c-0.9,0.7-1.9,1.3-3.1,1.3
				c-1.2,0-2-0.5-2.4-1.6c-0.2-0.5-0.4-1.1-0.4-1.6c-0.1-2.1,0.1-4.2,0.8-6.2c0.6-1.8,1.6-3.2,3.2-4.2c0.6-0.4,1.3-0.8,1.9-1.2
				c1.6-1.1,2.9-2.4,4.1-4c1.4-1.9,1.8-4,1.2-6.3c-0.5-1.9-1.2-3.7-2.2-5.4c-3.2-5-5.9-10.3-8.1-15.8c-0.4-0.9-0.9-1.8-1.4-2.6
				c-1.5-2.2-3.5-2.9-6-2c-1.3,0.5-2.5,1.1-3.8,1.7c-1.5,0.8-2.9,1.6-4.3,2.5c-3.5,2.2-7.2,4-11.1,5.5c-0.2,0.1-0.5,0.2-0.9,0.4
				c0.5,0.2,0.9,0.3,1.2,0.4c4.8,1.4,9.7,2.8,14.5,4.3c1.7,0.5,3.4,1,5,1.8c5.8,2.7,9.1,8.3,8.6,14.7c-0.2,2.2-0.8,4.3-1.7,6.3
				c-1.2,2.4-2.3,4.8-3.7,7.1c-3.3,5.4-5.8,11.1-7.5,17.2c-0.4,1.5-0.9,2.9-1.4,4.3c-1.1,2.9-2.7,5.4-5,7.4
				c-3.3,2.8-6.7,5.5-10.2,8.1c-1.1,0.8-2.4,1.4-3.7,1.9c-0.8,0.3-1.8,0.4-2.7,0.4c-1.8,0-3.1-0.9-3.5-2.8c-0.2-1.1-0.3-2.3-0.2-3.5
				c0.2-2.4,0.5-4.8,0.7-7.2c0.1-1,0.2-2,0.3-3c0.2-1.9,1.2-3.3,3.1-4c4.2-1.5,7.3-4.3,9.7-8c3.4-5.3,6.7-10.6,9.5-16.2
				c0.9-1.7,1.6-3.4,1.9-5.3c0.4-2.7-0.4-4-3.4-4.3c-1.5-0.1-3,0.1-4.4,0.6c-2.2,0.9-4.4,1.8-6.6,2.7c-7.4,3.1-15.1,5.5-22.9,7.7
				c-3.4,0.9-6.4,2.4-9.2,4.5c-4.1,3.2-7.8,6.7-11.6,10.1c-2.9,2.6-5.8,5.1-8.7,7.6c-6.4,5.5-13.9,8.8-22.1,10.6
				c-4.3,0.9-8.7,1.5-13.1,2c-4.7,0.5-9.3,1-13.9,1.7c-3.1,0.4-6,1.5-8.7,3.2c-2.5,1.6-4.3,3.6-5.4,6.4c-1,2.5-1.9,5-2.9,7.6
				c-2.3,6.2-5.4,12-8.7,17.7c-1.6,2.7-3,5.4-4.5,8.1c-0.5,1-0.9,2-1.3,3c-0.6,1.2-0.5,2.4-0.1,3.6c0.6,2.2,1.6,4.2,3,5.9
				c1.9,2.5,3.9,5,5.9,7.4c3.6,4.1,6.7,8.7,9.8,13.1c0.8,1.1,1.6,2.2,2.4,3.2c1,1.3,2.3,2.2,3.7,2.9c1.4,0.7,2.7,1.3,4.1,2
				c1.9,1,3.6,2.2,5.1,3.6c1,0.9,1.8,1.8,2.4,3c1.2,2.4,0.2,5-2.3,6c-1,0.4-2.2,0.7-3.3,0.8c-3.5,0.3-7,0-10.4-1
				c-2.7-0.8-4.8-2.3-6.4-4.7c-0.4-0.6-0.8-1.1-1.1-1.7c-3.5-6.4-8.3-11.6-13.9-16.1c-3.5-2.8-7.1-5.4-11-7.6
				c-2.2-1.2-4.2-2.6-6.3-4c-1-0.7-2-1.6-2.9-2.5c-2.8-3-3.8-6.6-3.3-10.5c0.4-3,1.1-5.9,1.7-8.9c0.7-3.2,1.2-6.5,1-9.8
				c-0.2-2.6-0.7-5-1.9-7.5c-0.3,0.3-0.6,0.5-0.8,0.7c-6.1,6.1-13,11.4-20.2,16c-1,0.7-2.1,1.3-3.1,2c-0.5,0.3-1,0.8-1.5,1.1
				c-3.2,2.3-4.9,5.3-5.4,9.2c-0.3,2.9-0.6,5.8-0.9,8.7c-0.1,1.5-0.2,3-0.2,4.6c-0.1,3.4,0.7,6.6,2.3,9.6c1,1.9,2.3,3.8,3.5,5.6
				c1.1,1.6,2.6,2.7,4.2,3.6c1.3,0.8,2.7,1.6,3.9,2.5c1,0.8,2,1.7,2.8,2.7c0.7,0.7,1,1.6,1.1,2.6c0.1,1.4-0.3,2.6-1.4,3.3
				c-0.8,0.6-1.8,1.1-2.8,1.3c-2.6,0.6-5.2,1.1-7.9,1.1c-3.4,0.1-6.1-1.2-8.1-4c-0.8-1.1-1.6-2.3-2.4-3.5c-1.8-2.9-4-5.4-6.7-7.5
				c-0.8-0.6-1.5-1.3-2.2-2c-2.3-2.4-3.1-5.2-2.8-8.4c0.3-3,0.9-5.9,1.4-8.8c1-5.3,1.2-10.6,1.2-16c-0.1-3.5,0.1-7,0.3-10.5
				c0.1-2.3,1.1-4.3,2.7-6c2.4-2.6,4.8-5.1,7.2-7.7c3.2-3.4,6.2-7,8.7-11c1.3-2.1,2.4-4.2,3-6.7c0.2-1.1,0.2-2.2,0-3.3
				c-0.4-1.9-0.9-3.7-1.7-5.5c-1.5-3.5-2.5-7.1-3.1-10.8c-0.2-1.1-0.6-2.3-1-3.3c-0.8-2.1-2.4-3.4-4.5-4c-1.6-0.5-3.2-0.8-4.9-1.1
				c-2.1-0.4-4.1-0.7-6.2-1.1c-1.5-0.3-2.9-0.9-4-1.9c-0.6-0.5-1.2-1.2-1.6-1.8c-0.9-1.5-0.2-3,1.5-3.4c0,0,0.1,0,0.1,0
				c3.2-0.4,6-1.9,8.8-3.3c1.2-0.6,2.3-1.2,3.7-2c-0.6-0.1-0.9-0.2-1.3-0.3c-1.9-0.5-3.9-0.8-5.8-1.4c-4.8-1.5-8.6-4.4-11.5-8.4
				c-0.8-1.1-1.5-2.2-2.2-3.3c-1.4-2.2-3.1-4-5.1-5.7c-1-0.8-1.9-1.7-2.9-2.5c-0.4-0.4-0.8-1-1.1-1.5c-0.7-1.3-0.5-2.6,0.7-3.7
				c1.1-1,2.4-1.4,3.9-1.6c2.2-0.3,4.3,0.2,6.2,1.2c1.3,0.7,2.6,1.6,3.9,2.4c1.7,1.1,3.4,2.1,5.2,2.9c1.1,0.4,2.2,0.8,3.4,0.8
				c1,0,1.3-0.2,1.3-1.2c0-1.1,0.1-2.2,0-3.3c-0.2-2-0.4-4-0.7-6c-0.5-2.9-1.8-5.6-3.4-8.1c-1-1.5-2-3-3.1-4.4
				c-3.1-4-5.4-8.3-6.8-13.1c-0.4-1.2-0.8-2.4-1.2-3.6c-1.4-3.5-3.7-6.1-7-7.9c-2.7-1.5-5.7-2.4-8.7-3.2c-3-0.8-6-1.5-8.9-2.4
				c-1.7-0.5-3.4-1.3-5-2.1c-0.7-0.3-1.3-0.9-1.8-1.4c-1.1-1.2-1.1-2.7-0.1-3.9c0.6-0.7,1.3-1.2,2-1.7c2.2-1.5,4.7-2.3,7.2-3
				c6.8-1.8,13.6-1.3,20.2,1.1c3.3,1.2,6.5,2.7,9.5,4.5c1.7,1,3.5,2,5.3,3c0.6,0.3,1.1,0.6,1.7,0.8c0.4,0.2,0.9,0.3,1.3-0.1
				c0.1-0.8-0.2-1.5-0.6-2.1c-1.5-2.8-3.1-5.4-5.5-7.5c-0.8-0.8-1.7-1.5-2.5-2.3c-0.5-0.5-0.9-1.1-1.2-1.8c-0.5-1.1,0-2,1.1-2.5
				c0.9-0.3,1.9-0.3,2.8-0.1c3.9,0.8,7.9,1.5,11.8,2.4c2.8,0.6,5.6,1.4,8.3,2.6c0.9,0.4,1.8,0.8,2.7,1.3
				c7.8,4.2,11.8,10.8,12.4,19.5c0.2,3.2-0.2,6.4-0.8,9.6c-0.3,2-0.5,4-0.9,6c-1,4.8-2.7,9.5-4.4,14.1c-1.2,3.3-2.4,6.6-3.6,9.9
				c-0.6,1.7-1,3.5-0.9,5.3c0,1.1,0,2.2,0,3.3c0.1,0,0.1,0,0.2,0c0.1-0.2,0.3-0.4,0.4-0.6c1.4-2,2.7-4,4.1-5.9
				c2.8-3.6,5.4-7.4,7.6-11.4c0.3-0.6,0.6-1.1,1-1.6c1.4-1.7,3.5-1.5,4.5,0.5c0.5,1.1,0.6,2.3,0.5,3.4c-0.2,2.6-0.8,5-1.6,7.5
				c-1.2,3.6-2.7,7-4.2,10.4c-1.2,2.7-2.4,5.4-2.9,8.3c-0.1,0.6-0.1,1.3-0.2,2c0.1,0,0.1,0.1,0.2,0.1c0.1-0.1,0.3-0.2,0.4-0.3
				c4.8-5.9,11.1-9.6,18.3-11.8c6-1.9,12.1-3.4,18.3-4.7c7.6-1.5,15-3.4,22.1-6.4c12.7-5.3,23.7-13,33.2-23
				c3.3-3.4,5.8-7.3,7.8-11.6c1-2.2,2.1-4.3,2.9-6.5c0.7-1.9,1.2-4,1.7-6c0.7-3.1,1.3-6.3,1.2-9.5c0-2.8-0.6-5.5-1.6-8.1
				c-1.7-4.2-4.1-8.1-6.9-11.7c-0.1-0.1-0.1-0.3-0.2-0.4c-0.3,0.3-0.5,0.5-0.7,0.7c-2.3,2.5-5,4.4-8.3,5.3c-5,1.3-9.1,4.3-12.7,7.8
				c-1.5,1.5-3,3.1-4.6,4.5c-1.2,1.1-2.5,2.1-3.8,3c-4.5,3-9.6,2.6-13.7-0.9c-2.4-2.1-3.2-4.8-2.9-7.9c0.3-2.7,1-5.2,2.2-7.6
				c1.7-3.8,2.8-7.7,3.5-11.8c0.5-3.1,1.2-6,2.7-8.8c0-0.1,0.1-0.2,0.1-0.4c-0.2-0.2-0.4-0.4-0.6-0.6c-1.3-1.1-2.3-2.4-3.3-3.8
				c-0.3-0.5-0.7-0.7-1.3-0.5c-1.1,0.3-2.3,0.6-3.4,0.7c-4.2,0.4-7.9-0.7-10.7-4c-0.1-0.1-0.2-0.2-0.3-0.3c-0.5-0.7-1.1-0.9-2-0.7
				c-2.6,0.5-5.3,0.4-7.9-0.1c-2.6-0.6-4.7-2-6.6-3.8c-0.6-0.6-1.2-1.1-1.7-1.7c-0.4-0.5-0.9-0.7-1.6-0.5c-2.1,0.5-4.2,0.7-6.3,0.3
				c-2.9-0.5-5.5-1.6-7.5-3.9c-0.7-0.8-1.5-1.2-2.6-1.4c-3.6-0.8-6.8-2.6-9.5-5c-2.4-2.1-1.7-4.9,1.4-5.9c1.5-0.5,3.1-0.3,4.6-0.1
				c2.1,0.4,4.1,1.2,6.1,2.1c0.7,0.3,1.3,0.4,2,0.1c1.9-0.6,3.8-1,5.7-1.1c2.6-0.2,5,0.5,7,2.2c0.9,0.8,1.8,0.9,3,0.9
				c3.3-0.2,6.7,0.1,9.8,1.3c2.2,0.8,4.2,2.1,5.7,3.9c0.5,0.6,1,0.7,1.8,0.6c2.3-0.6,4.7-0.8,7.1-0.4c3,0.4,5.5,1.6,7.4,4
				c0.3,0.4,0.7,0.8,1,1.3c0.3,0.4,0.7,0.6,1.2,0.5c1.5-0.4,3-0.7,4.7-1.1c-0.2-0.3-0.4-0.7-0.6-1c-1.4-2.5-2.7-5-3.4-7.8
				c-0.4-1.5-0.5-3-0.4-4.5c0-0.3,0.1-0.6,0.1-0.8c0.6-2.2,2.3-3,4.3-2c3.2,1.6,6.2,3.5,9,5.6C215.3,83,215.6,83.2,216.1,83.5z
				 M291.8,190.9c-0.1,0-0.1,0.1-0.2,0.1c-0.4-0.4-0.9-0.8-1.3-1.2c-2.5-2.4-4.9-4.8-7.4-7.2c-1.2-1.1-2.5-2.1-3.8-3.1
				c-0.7-0.5-1.6-0.9-2.5-1.2c-2.6-0.8-4.8,0.2-6,2.6c-0.2,0.4-0.3,0.8-0.4,1.2c-0.5,1.7-0.4,3.4-0.1,5.2c0.4,2.6,1.3,5.1,2.2,7.5
				c0.1,0.2,0.1,0.5,0.2,0.7c-0.5-0.4-0.8-0.8-1.2-1.3c-0.7-0.8-1.4-1.5-2.1-2.2c-1.1-1-2.3-1.7-3.7-2c-3-0.6-4.9,1.2-4.3,4.2
				c0.3,1.5,0.8,2.9,1.6,4.2c1.5,2.5,3,5,4.9,7.2c0.2,0.3,0.4,0.7,0.4,1c0,4.1,0,8.2,0,12.2c0,0.7-0.1,1.4-0.2,2.1
				c-0.1,0-0.2,0-0.2,0.1c-0.2-0.3-0.5-0.6-0.7-0.9c-1.1-1.7-2-3.6-2.7-5.5c-1.7-4.8-3.2-9.6-4.9-14.4c-0.5-1.4-1-2.8-1.6-4
				c-1.7-3.1-4.7-4.2-8-3.1c-1.4,0.5-2.7,1.2-3.8,2c-0.3,0.2-0.6,0.4-1,0.6c-0.2-0.5-0.3-0.9-0.4-1.2c-0.6-1.7-1.6-3.2-2.9-4.4
				c-0.7-0.7-1.6-1.3-2.6-1.7c-3.1-1.2-6,0.5-6.6,3.8c-0.5,3.3,1.4,7.1,4.5,8.7c1.7,1,3.6,1.1,5.4,0.5c0.3-0.1,0.6-0.2,1.1-0.3
				c-0.5,3.3-1.9,6-4.1,8.1c-1.5-0.9-2.9-1.7-4.3-2.4c-2.1-1.1-4.4-1.7-6.7-1.8c-1.9-0.1-3.7,0.1-5.4,0.9c-3.1,1.5-4.7,4.9-3.8,8
				c0.7,2.3,2.3,3.6,4.4,4.4c2.7,0.9,5.4,0.8,8.1-0.1c2.8-0.9,5.2-2.5,7.4-4.5c0.3-0.3,0.6-0.5,0.9-0.8c0.3,0.4,0.6,0.7,0.9,1
				c2.6,2.8,4.4,6.1,5.5,9.8c1,3.3,1.3,6.6,0.8,10c-0.2,1.2-0.6,2.3-1.4,3.2c-0.6,0.8-1.4,1-2.4,0.9c-1-0.1-1.9-0.5-2.7-1.1
				c-1.1-0.8-2-1.8-2.7-3c-1-1.7-1.8-3.4-2.7-5.2c-0.8-1.5-1.4-3.1-2.3-4.6c-0.4-0.8-1-1.4-1.7-2c-0.8-0.7-1.8-1-2.9-0.6
				c-1.4,0.5-2.1,1.5-2.2,3c-0.2,2.2,0.2,4.2,0.9,6.3c0.2,0.5,0.3,1,0.3,1.4c-0.1,3.1-0.5,6.2-1.4,9.2c-0.1,0.5-0.3,0.9-0.6,1.4
				c-0.5,0.9-1,1-1.8,0.4c-0.5-0.4-1-0.8-1.4-1.3c-2.1-2.1-3.8-4.5-5.2-7.1c-1.3-2.2-2.4-4.5-2.9-7.1c-0.2-1-0.3-2.1-0.4-3.2
				c0-0.8,0.2-1.1,1-1.3c0.4-0.1,0.9-0.2,1.4-0.1c0.5,0,1,0.2,1.6,0.2c0.8,0.1,1.2-0.4,0.8-1.1c-0.3-0.5-0.8-0.9-1.3-1.3
				c-2-1.3-4.8-0.9-6.5,0.8c-0.9,0.9-1.5,2-1.8,3.2c-0.6,2.1-0.6,4.3-0.3,6.4c0.5,3.3,1.7,6.3,3.4,9.2c0.2,0.4,0.5,0.9,0.5,1.4
				c0,1.9-0.1,3.8-0.2,5.6c-0.1,1.1-0.3,2.2-1,3.3c-0.3-0.3-0.6-0.6-0.8-0.9c-2-2.5-3.5-5.4-5-8.3c-1.1-2.3-2.2-4.5-3.4-6.7
				c-0.7-1.3-1.6-2.4-2.5-3.5c-0.4-0.5-1.1-0.9-1.7-1.2c-1.4-0.6-2.8,0-3.3,1.4c-0.1,0.4-0.2,0.7-0.3,1.1c-0.3,1.6,0,3.3,0.3,4.8
				c0.6,2.5,1.5,4.9,2.5,7.3c0.2,0.6,0.5,1.2,0.5,1.8c0.1,2.5,0.1,5,0.2,7.5c0,0.6-0.1,1.2-0.2,2c-0.2-0.4-0.4-0.5-0.5-0.7
				c-0.4-0.7-0.7-1.5-1-2.2c-1.6-4.1-3.2-8.2-4.9-12.2c-0.8-1.8-1.6-3.6-2.5-5.4c-0.7-1.4-1.7-2.6-3-3.5c-2.7-2-6-1.2-7.5,1.8
				c-0.5,1-0.8,2.1-1,3.2c-0.6,3.6-0.3,7.1,0.3,10.7c0.1,0.4,0.1,0.9,0.2,1.3c-0.8-1.3-1.3-2.7-2-4c-0.9-1.9-1.9-3.9-2.9-5.8
				c-0.6-1.2-1.5-2.3-2.6-3.1c-0.9-0.6-1.8-0.9-2.8-0.4c-1,0.5-1.3,1.4-1.3,2.4c0.1,1.2,0.2,2.5,0.6,3.7c1,3.9,2.8,7.6,4.5,11.3
				c0.3,0.7,0.6,1.5,0.7,2.3c0.7,4.2,1.3,8.3,1.9,12.5c0.2,1.6,0.3,3.2,0.4,4.8c0,0.7,0,1.5-0.4,2.2c-1-0.6-1.7-1.5-2.3-2.4
				c-1.3-2.1-2.6-4.2-3.6-6.4c-2.2-4.7-4.1-9.5-6.2-14.2c-0.9-1.9-1.8-3.9-2.8-5.7c-0.4-0.8-1-1.5-1.6-2.2c-0.4-0.4-0.9-0.8-1.4-1.1
				c-1.8-0.9-3.5-0.2-4.2,1.7c-0.4,1.2-0.5,2.5-0.3,3.8c0.3,2.1,0.7,4.3,1.1,6.4c0.7,3.3,1.1,6.6,0.9,9.9c-0.1,1-0.2,2-0.5,3
				c-0.1,0.6-0.3,1.3-1.1,1.4c-0.8,0.1-1.2-0.5-1.4-1.1c-0.6-1.2-1.2-2.3-1.7-3.6c-1.4-3.9-2.4-7.9-3.5-11.9
				c-0.6-2.2-1.2-4.3-1.9-6.4c-0.3-1-0.9-2-1.8-2.8c-1.8-1.7-4.1-1.2-4.9,1.1c-0.4,1.1-0.6,2.3-0.7,3.4c-0.2,6.1,1.2,11.9,3.5,17.5
				c0.9,2.2,2,4.3,3.5,6.1c1,1.2,2.2,2.3,3.6,3.1c2.9,1.5,6.1,0.7,7.9-1.9c0.8-1.1,1.2-2.3,1.3-3.6c0.2-2.5,0.3-5.1,0.5-7.6
				c0-0.3,0-0.5,0-0.8c0.5,0.6,0.7,1.3,1,1.9c1.9,4,4,7.9,6.9,11.3c1.3,1.5,2.8,3,4.5,4c0.9,0.5,2,1,3,1.3c2.3,0.6,5.3-0.2,5.2-3.9
				c0-1.4-0.1-2.8-0.4-4.2c-0.7-3.7-1.4-7.4-2.1-11.1c-0.1-0.3-0.1-0.6-0.1-1.1c0.5,0.5,0.7,0.9,1,1.2c0.9,0.8,1.8,1.7,2.8,2.4
				c0.5,0.4,1.2,0.6,1.9,0.7c1.3,0.2,2.3-0.6,2.2-2c-0.1-1.2-0.3-2.5-0.5-3.7c-0.9-3.9-1.8-7.9-2.1-11.9c-0.2-2.3-0.1-4.6,0.5-6.9
				c0.2-0.6,0.3-1.1,0.9-1.6c0.2,0.4,0.4,0.7,0.5,1c0.6,1.5,1.3,3,1.8,4.5c1.2,3,2.2,6.1,3.4,9c0.9,2.4,2.3,4.5,4,6.4
				c1.4,1.6,3.2,2.7,5.3,3.3c2,0.5,3.5-0.5,4-2.5c0.1-0.5,0.2-1.1,0.2-1.7c-0.1-1.8-0.2-3.5-0.4-5.3c-0.1-1-0.2-2.1-0.3-3.1
				c0.4,0.2,0.6,0.5,0.8,0.8c1.9,2.4,4,4.6,6.8,6c1.1,0.6,2.3,0.9,3.6,0.8c1.5-0.1,2.6-0.9,3-2.3c0.4-1.3,0.7-2.6,0.8-3.9
				c0.2-1.6,0.1-3.3,0.2-4.9c0-0.2,0.1-0.5,0.1-0.8c0.6,0.6,1.1,1.1,1.6,1.6c1.8,1.8,3.8,3.2,6.3,3.8c2.8,0.7,5-0.5,5.9-3.3
				c0.1-0.4,0.3-0.8,0.3-1.2c0.2-1.2,0.4-2.3,0.4-3.5c0.1-2.4,0-4.9,0-7.3c0-0.4,0-0.7,0-1.1c0.3,0.3,0.5,0.6,0.7,0.9
				c1.2,2.3,2.6,4.4,4.4,6.2c1.5,1.5,3.2,2.7,5.2,3.4c4.5,1.5,8.8-0.5,10.6-4.8c0.3-0.7,0.5-1.4,0.7-2.1c0.6-2.6,0.5-5.3,0-7.9
				c-1.2-6.7-3.9-12.6-8.8-17.5c-0.2-0.2-0.4-0.4-0.5-0.6c0.1-0.2,0.2-0.3,0.3-0.4c2.3-3.1,3.6-6.5,3.7-10.3c0-0.4,0.1-0.7,0.5-0.9
				c0.9-0.6,1.7-1.3,2.6-1.9c0.5-0.3,1-0.6,1.7-0.9c0.5,1.3,0.9,2.5,1.3,3.6c0.8,3,1.6,6,2.4,9.1c0.9,3.6,2,7.1,3.7,10.4
				c0.9,1.8,2.1,3.5,3.6,4.9c0.9,0.8,1.9,1.5,3.1,1.8c2.9,0.9,5.2-0.4,5.8-3.4c0.3-1.3,0.3-2.7,0.3-4.1c-0.1-3.4-0.2-6.8-0.3-10.2
				c0-0.3,0-0.5,0.1-0.9c0.9,1,1.8,1.9,2.6,2.8c1.6,1.6,3.4,2.9,5.5,3.8c0.7,0.3,1.5,0.5,2.3,0.6c1.6,0.1,2.7-1,2.6-2.6
				c-0.1-0.9-0.2-1.8-0.5-2.6c-0.6-1.7-1.4-3.4-2.1-5.1c-1.6-3.6-3.3-7.2-4.9-10.9c-0.9-2-1.5-4.1-1.8-6.2c-0.2-1.2-0.2-2.4,0-3.8
				c0.7,0.8,1.4,1.4,2,2c1.8,2,3.5,4,5.3,6c1.8,2,3.8,4,5.9,5.6c1.3,1,2.6,1.8,4.2,2.3c2.9,0.9,5.2-0.7,5.3-3.7
				c0.1-1.3-0.2-2.5-0.5-3.8c-0.7-2.3-1.6-4.6-2.8-6.6c-2.5-4.3-5.1-8.5-7.6-12.8c-0.2-0.4-0.4-0.7-0.7-1.2c2.4,0,4.7,0.1,6.9,0.4
				c0,0.6,0,1,0.1,1.5c0.3,1.3,0.4,2.7,0.9,3.9c0.9,2.4,2.6,4.1,5,4.9c2,0.7,4,0.4,5.5-1.2c1.5-1.7,2-3.7,1.5-5.8
				c-0.5-2.1-1.7-3.9-3.3-5.4c-1.5-1.4-3.3-2.4-5.2-3.2c-0.3-0.1-0.7-0.3-1.1-0.5c0.6-1.6,1.1-3.1,1.6-4.5c1.1-3.2,1.8-6.5,1.4-9.9
				c-0.3-2.4-0.9-4.7-2.5-6.7c-1.2-1.5-2.7-2.4-4.6-2.5c-0.3,0-0.6,0-0.9,0.1c-0.5,0.1-0.7,0.4-0.8,0.9c-0.1,0.5,0.2,0.9,0.6,1
				c0.3,0.2,0.7,0.3,1.1,0.3c1.2,0.2,2.2,0.8,2.9,1.8c0.7,1,1.2,2,1.5,3.2c0.8,3.1,0.7,6.1-0.1,9.2c-0.5,2-1.3,4-2,6
				c-0.1,0.2-0.2,0.4-0.3,0.6c-3.9-0.7-7.6-1.3-11.4-2c-1.8-0.3-3.7-0.8-5.5-1.3c-1-0.3-1.9-0.7-2.6-1.5c-0.2-0.3-0.5-0.7-0.4-1
				c0.2-1.4,0.8-2.5,2.2-3.1c1.1-0.5,2.3-0.6,3.5-0.4c0.4,0.1,0.9,0.1,1.3,0.1c0.8-0.1,1.1-0.8,0.5-1.4c-0.4-0.4-0.9-0.7-1.4-0.9
				c-1.5-0.6-3.1-0.7-4.6-0.3c-2.9,0.7-5.2,3.3-5.6,6.5c-0.3,2.8,0.6,5.1,2.5,7.1c1.5,1.5,3.3,2.5,5.3,3.1c1.6,0.5,3.2,0.7,4.8,1
				c0.5,0.1,0.9,0.3,1.2,0.8c0.9,1.5,2,3,2.9,4.6c2.4,4.1,4.6,8.3,6.1,12.9C291.6,190,291.7,190.5,291.8,190.9z M276.5,131
				c2.5,0.1,5.8-0.4,9-1.4c5.5-1.7,9.8-4.8,11.9-10.4c1.6-4,1.7-8.1-0.1-12.1c-1.7-3.8-4.7-6.2-8.8-7c-3.4-0.7-6.5,1-7.7,4.2
				c-1.2,3.1,0,7,2.7,8.8c0.3,0.2,0.6,0.3,0.9,0.4c0.6,0.2,1.2,0,1.6-0.5c0.4-0.5,0.6-1.1,0.3-1.7c-0.2-0.4-0.5-0.8-0.8-1.2
				c-0.5-0.6-0.9-1.2-1-1.9c-0.4-2,0.9-4.4,3.7-3.5c2.4,0.7,4,2.3,5.1,4.5c1.9,4,0.7,9.6-2.8,12.7c-1.6,1.4-3.3,2.4-5.3,3.1
				c-4.7,1.5-9.5,1.9-14.4,1.2c-5.9-0.8-11.3-3-16.3-6.1c-3.6-2.3-7.3-4.4-11-6.6c-1.3-0.7-2.6-1.4-3.9-1.9
				c-0.9-0.4-1.9-0.6-2.9-0.8c-0.5-0.1-1,0.1-1.6,0.2c-0.4,0.1-0.8,0.4-0.7,0.8c0.1,0.3,0.4,0.6,0.7,0.7c2.6,0.9,4.8,2.5,7,4
				c3.7,2.5,7.3,5,11,7.5C259.9,128.4,267.4,131,276.5,131z M121.7,202.8c0,2.5,0.3,4.4,0.9,5.8c0.3,0.6,0.6,1.2,1,1.7
				c0.3,0.5,0.8,0.8,1.5,0.6c0.6-0.2,0.8-0.8,0.8-1.4c0-0.5,0-1,0-1.5c-0.2-3.3,0.3-6.5,1.7-9.6c1.1-2.5,2.3-4.9,3.6-7.3
				c2-3.8,4-7.5,5.3-11.6c1.2-3.6,2-7.3,1.8-11.2c-0.2-2.9-0.9-5.5-2.5-7.9c-1.3-1.9-3-3.3-5.2-4.1c-3.3-1.2-6.9-0.2-9.1,2.6
				c-1.8,2.3-2.4,4.9-1.8,7.8c0.3,1.4,0.8,2.7,1.7,3.8c0.7,0.9,1.7,1.5,2.8,1.9c0.6,0.3,1.2,0.1,1.5-0.3c0.4-0.5,0.3-1.1-0.1-1.7
				c-0.2-0.2-0.4-0.5-0.7-0.7c-0.9-0.7-1.4-1.6-1.6-2.7c-0.6-2.4-0.1-4.5,1.7-6.1c1.2-1,2.5-1.3,4-0.7c1,0.4,1.8,1,2.5,1.9
				c0.9,1.2,1.5,2.6,1.8,4.2c0.5,2.7,0.1,5.4-0.5,8c-1.2,4.5-3,8.6-5.2,12.7c-1.3,2.5-2.6,5-3.7,7.5
				C122.4,197.5,121.6,200.4,121.7,202.8z M247.6,89.3c-1.6,0.1-3.2,0.2-4.8,0.4c-3.1,0.3-6.1,0.9-9,1.9c-5,1.8-9.4,4.4-12.8,8.6
				c-0.6,0.8-1.2,1.7-1.7,2.6c-0.4,0.7-0.3,1.2,0.1,1.4c0.6,0.3,0.9-0.2,1.3-0.5c1.2-1.1,2.4-2.2,3.7-3.2c1.9-1.7,4.1-3,6.4-4
				c6.7-2.9,13.6-3.7,20.8-2.7c3.7,0.5,7.2,1.8,10.3,3.9c1.7,1.1,3.1,2.6,4.1,4.4c1.4,2.5,0.9,5.3-1.3,7.1c-1.3,1.1-2.8,1.6-4.5,1.6
				c-1.5,0.1-2.6-0.5-3.6-1.6c-1-1.2-1.1-2.5-0.6-3.9c0.2-0.5,0.6-0.8,1-1.2c0.6-0.7,0.7-1.5,0.2-2.1c-0.5-0.6-1.3-0.8-2.1-0.4
				c-0.2,0.1-0.4,0.3-0.6,0.4c-0.9,0.8-1.5,1.8-1.8,3c-0.5,2.6,0.2,4.8,2,6.6c1.9,1.9,4.3,2.6,7,2.3c3.1-0.4,5.7-1.8,7.5-4.4
				c2.2-3.3,2.2-6.7,0.2-10c-1.7-2.9-4.2-4.9-7-6.5C257.9,90.3,252.9,89.4,247.6,89.3z M316.8,151.4
				C316.8,151.4,316.8,151.4,316.8,151.4c-0.1-0.4-0.1-0.9-0.1-1.3c0-0.2-0.1-0.5-0.1-0.7c-0.8-4.2-2.6-7.9-5.4-11.2
				c-2.3-2.7-5.1-4.7-8.6-5.9c-1.2-0.4-2.4-0.7-3.7-0.5c-0.7,0.1-1.4,0.3-2,0.7c-0.7,0.4-0.7,1.1-0.1,1.6c0.5,0.4,1,0.7,1.5,0.9
				c0.8,0.4,1.7,0.8,2.5,1.2c5.9,3,9.4,7.8,10.9,14.1c0.2,0.7,0.2,1.5,0.2,2.2c-0.1,1.6-1,2.7-2.6,3.1c-1.1,0.3-1.8,0-2.4-1
				c-0.2-0.4-0.4-0.8-0.7-1.2c-0.5-0.6-1.1-0.7-1.7-0.5c-0.6,0.3-1,0.9-0.9,1.7c0.3,2.2,2.1,4.1,4.2,4.6c3.8,0.8,7.5-1.6,8.4-5.4
				C316.7,153.1,316.7,152.2,316.8,151.4z M116.7,190.8c0,0.2,0,0.6,0.1,1c0.1,0.5,0.4,0.9,0.9,1c0.6,0.1,1-0.2,1.3-0.6
				c0.2-0.4,0.4-0.7,0.6-1.1c0.3-0.9,0.6-1.8,0.8-2.7c1.2-5.7-0.3-10.4-4.8-14.2c-0.5-0.4-1.1-0.9-1.7-1.3c-1.3-0.9-2.7-1.8-3.9-2.7
				c-1.5-1.1-3-2.3-4.3-3.6c-1.5-1.4-2.5-3.3-2.9-5.3c-0.1-0.6-0.1-1.2,0.1-1.8c0.2-0.8,0.8-0.9,1.5-0.4c0.3,0.2,0.5,0.5,0.7,0.8
				c0.3,0.3,0.6,0.6,1,0.7c0.9,0.3,1.7-0.3,1.6-1.2c0-0.3-0.1-0.6-0.3-0.9c-0.6-1-1.3-1.7-2.3-2.3c-0.8-0.4-1.5-0.5-2.4-0.3
				c-1.3,0.3-2.1,1.2-2.6,2.3c-0.6,1.3-0.6,2.7-0.3,4.1c0.6,2.9,2,5.4,4.1,7.4c1.6,1.5,3.3,2.8,4.9,4.2c1.3,1.1,2.7,2,4,3
				c2.1,1.6,3.5,3.7,4,6.3c0.3,1.3,0.4,2.7,0.2,4C116.8,188.5,116.8,189.6,116.7,190.8z M134.2,233.2c0-0.8-0.1-1.4-0.1-1.9
				c0-0.4-0.1-0.8-0.2-1.3c-1-5.6-4.1-9.7-9-12.4c-1.6-0.9-3.4-1.4-5.3-1.2c-2.3,0.2-4.3,1.9-4.8,4.1c-0.8,3.3,1.6,7.9,6.6,7.7
				c0.8,0,1.3-0.5,1.4-1.1c0.1-0.6-0.2-1.1-0.8-1.5c-0.5-0.2-1-0.4-1.5-0.5c-1.3-0.4-1.9-1.3-2.1-2.6c-0.2-1.3,0.5-2.1,1.9-2.1
				c1,0,1.9,0.4,2.8,0.8c3.8,2,6.1,5.2,7.5,9.2c0.4,1.2,0.7,2.5,1.1,3.8c0.1,0.4,0.3,0.9,0.5,1.3c0.2,0.4,0.5,0.7,1,0.6
				c0.5,0,0.8-0.4,0.9-0.8c0.1-0.2,0.2-0.5,0.2-0.7C134.2,234.1,134.2,233.6,134.2,233.2z M197.5,224.1c0-2.2-0.7-3.6-2-4.6
				c-2.4-1.9-6-0.6-6.6,2.3c-0.4,2.3,0.8,4.6,2.9,5.7c1.2,0.6,2.5,0.6,3.6-0.2C196.9,226.5,197.5,225.2,197.5,224.1z"/>
			<path class="st21" d="M237.4,210.8c-2,1.2-3.9,2.3-5.7,3.4c-0.5,0.3-1.1,0.4-1.6,0.5c-3.2,0.6-5.9-1.4-6.3-4.6
				c-0.1-0.8,0.1-1.4,0.7-1.9c0.6-0.6,1.4-1,2.3-1c1.8-0.1,3.5,0.1,5.2,0.7C233.8,208.5,235.6,209.5,237.4,210.8z"/>
			<path class="st21" d="M241.5,197.4c-0.5-0.1-0.8,0-1.1-0.2c-2.2-0.8-3.5-2.3-4.1-4.5c-0.1-0.4-0.1-0.8,0-1.2
				c0.1-0.9,0.7-1.5,1.6-1.4c0.7,0.1,1.4,0.3,2,0.6c1.9,1.2,3,3.1,3.7,5.2c0.2,0.5,0,0.8-0.5,1C242.5,197.2,241.9,197.3,241.5,197.4
				z"/>
			<path class="st21" d="M294.1,172.5c2.4,0.6,4.5,1.4,6.1,3.3c0.7,0.8,1,1.8,0.6,2.9c-0.3,0.7-0.8,1.2-1.6,1.1
				c-0.4,0-0.8-0.1-1.2-0.2c-0.9-0.3-1.6-0.8-2.1-1.5C294.4,176.4,294.2,174.5,294.1,172.5z"/>
		</g>
	</g>
</g>
</svg>
